<svg width="238" height="522" viewBox="0 0 238 522" fill="none" xmlns="http://www.w3.org/2000/svg">
<path d="M112.565 128.5C129.459 107.932 147.126 87.932 165.565 68.5C188.788 44.7754 212.788 21.9421 237.565 0C212.844 13.8699 188.844 29.0366 165.565 45.5C146.424 57.6383 128.424 71.305 111.565 86.5C93.5992 101.466 76.9322 117.799 61.5652 135.5C52.8952 144.006 44.7282 153.006 37.0652 162.5C23.8102 178.001 12.8102 195.001 4.06519 213.5C-4.11581 231.942 0.0511932 246.775 16.5652 258C30.7742 265.902 45.7742 271.736 61.5652 275.5C97.9242 287.865 113.757 313.198 109.065 351.5C107.085 364.736 104.085 377.736 100.065 390.5C83.7532 436.121 62.9192 479.454 37.5652 520.5C37.6487 520.667 37.732 520.833 37.8152 521L37.8991 521.168C37.9544 521.279 38.0098 521.389 38.0652 521.5C56.371 498.795 73.9631 475.588 90.8417 451.878C92.0118 449.839 93.3941 447.714 95 445.5C135.975 389.01 160.564 340.697 167.881 323.284C172.902 309.153 174.63 294.559 173.065 279.5C170.017 268.562 163.517 260.395 153.565 255C140.154 248.809 126.487 243.309 112.565 238.5C107.833 236.298 103.166 233.798 98.5652 231C89.1682 225.704 83.0012 217.87 80.0652 207.5C78.6032 196.47 79.9362 185.804 84.0652 175.5C92.2022 158.895 101.702 143.229 112.565 128.5Z" fill="#0399C2"/>
</svg>
