<?xml version="1.0" standalone="no"?>
<!DOCTYPE svg PUBLIC "-//W3C//DTD SVG 20010904//EN"
 "http://www.w3.org/TR/2001/REC-SVG-20010904/DTD/svg10.dtd">
<svg version="1.0" xmlns="http://www.w3.org/2000/svg"
 width="522.000000pt" height="522.000000pt" viewBox="0 0 522.000000 522.000000"
 preserveAspectRatio="xMidYMid meet">
<metadata>
Created by potrace 1.14, written by Peter Selinger 2001-2017
</metadata>
<g transform="translate(0.000000,522.000000) scale(0.100000,-0.100000)"
fill="#000000" stroke="none">
<path d="M3665 5145 c-60 -36 -110 -65 -112 -65 -2 0 -16 -9 -31 -19 -15 -10
-78 -51 -140 -90 -333 -212 -634 -428 -807 -581 -28 -25 -80 -70 -115 -100
-80 -67 -317 -304 -468 -466 -201 -217 -371 -436 -450 -583 -102 -188 -121
-244 -118 -339 5 -173 147 -291 476 -397 208 -66 234 -77 312 -122 166 -96
266 -243 298 -435 20 -125 -5 -338 -66 -553 -90 -316 -401 -988 -616 -1328
-49 -77 -26 -64 43 25 188 241 241 311 385 511 94 131 150 210 202 287 20 30
39 57 42 60 5 4 115 170 186 280 94 145 246 414 333 588 58 116 115 252 106
252 -3 0 -1 10 4 23 26 69 34 278 13 352 -31 112 -113 196 -242 250 -36 15
-83 35 -105 45 -22 10 -74 30 -115 45 -271 99 -382 178 -441 310 -28 65 -30
202 -4 290 46 155 219 441 389 643 213 253 375 431 577 631 174 175 430 417
554 524 17 15 28 27 25 27 -3 0 -55 -29 -115 -65z"/>
</g>
</svg>
